<?xml version="1.0" encoding="utf-8"?>
<!-- Generator: Adobe Illustrator 17.0.0, SVG Export Plug-In . SVG Version: 6.00 Build 0)  -->
<!DOCTYPE svg PUBLIC "-//W3C//DTD SVG 1.1//EN" "http://www.w3.org/Graphics/SVG/1.1/DTD/svg11.dtd">
<svg version="1.1" id="Layer_1" xmlns="http://www.w3.org/2000/svg" xmlns:xlink="http://www.w3.org/1999/xlink" x="0px" y="0px"
	 width="92px" height="92px" viewBox="0 0 92 92" enable-background="new 0 0 92 92" xml:space="preserve">
<title>logo-bb-bs</title>
<g id="Layer_2">
	<g id="Capa_2">
		<path fill="#FFFFFF" d="M46.957,1.478c-24.877,0-45.043,20.166-45.043,45.043S22.08,91.565,46.957,91.565S92,71.398,92,46.522
			C91.974,21.655,71.823,1.504,46.957,1.478z M46.957,85.429C28.549,85.404,12.668,72.503,8.873,54.49
			c1.666,0.591,3.17,1.568,4.387,2.85c6.679,6.979,17.751,7.223,24.731,0.544c0.185-0.177,0.367-0.359,0.544-0.544l0.222-0.259
			c4.446-4.452,11.66-4.457,16.112-0.01c0.003,0.003,0.007,0.007,0.01,0.01l0.241,0.278c6.676,6.982,17.749,7.23,24.731,0.553
			c0.189-0.18,0.373-0.365,0.553-0.553c1.276-1.35,2.865-2.365,4.627-2.952C81.268,72.447,65.386,85.388,46.957,85.429z
			 M48.66,30.27l-1.703-1.138l-1.694,1.138c-6.324,4.242-11.429,10.065-14.808,16.89c1.75-10.438,7.704-19.701,16.474-25.627
			C55.714,27.45,61.683,36.715,63.44,47.16C60.069,40.338,54.974,34.516,48.66,30.27z M59.303,52.889
			c-6.694-6.853-17.659-7.03-24.571-0.398c2.57-6.301,6.782-11.798,12.198-15.918C52.462,40.783,56.741,46.425,59.303,52.889z
			 M85.809,47.928c-3.763,0.598-7.224,2.42-9.847,5.183c-1.593,1.685-3.669,2.835-5.942,3.295c0.056-0.925,0.102-1.851,0.102-2.776
			c0.037-15.689-8.145-30.251-21.564-38.38l-1.601-0.981l-1.601,0.981c-13.423,8.137-21.602,22.711-21.554,38.407
			c0,0.925,0.046,1.851,0.111,2.776c-2.389-0.41-4.583-1.578-6.256-3.332c-2.556-2.694-5.911-4.495-9.569-5.136
			c0-0.481,0-0.925,0-1.444C8.088,25.031,25.509,7.609,47,7.609s38.91,17.422,38.91,38.913c-0.037,0.472-0.056,0.935-0.074,1.407
			L85.809,47.928L85.809,47.928z"/>
	</g>
</g>
</svg>
