<?xml version="1.0" encoding="utf-8"?>
<!-- Generator: Adobe Illustrator 22.0.1, SVG Export Plug-In . SVG Version: 6.00 Build 0)  -->
<svg version="1.1" id="Layer_1" xmlns="http://www.w3.org/2000/svg" xmlns:xlink="http://www.w3.org/1999/xlink" x="0px" y="0px"
	 viewBox="0 0 255.7 52.2" style="enable-background:new 0 0 255.7 52.2;" xml:space="preserve">
<style type="text/css">
	.st0{fill:#FFFFFF;}
</style>
<title>BS-logo-white</title>
<path class="st0" d="M26.1,52.2C11.7,52.2,0,40.5,0,26.1S11.7,0,26.1,0s26.1,11.7,26.1,26.1v0C52.2,40.5,40.5,52.2,26.1,52.2z
	 M26.1,3.5C13.6,3.5,3.5,13.7,3.5,26.1s10.1,22.6,22.6,22.6s22.6-10.1,22.6-22.6l0,0C48.6,13.7,38.6,3.6,26.1,3.5z"/>
<path class="st0" d="M38.1,35.5c-2.8,0-5.4-1.1-7.3-3.1l-0.1-0.2c-2.6-2.6-6.8-2.6-9.3,0c0,0,0,0,0,0l-0.1,0.1
	c-3.9,4-10.3,4.2-14.3,0.3c-0.1-0.1-0.2-0.2-0.3-0.3c-1.2-1.3-3-2-4.8-2v-3.6c2.8,0,5.4,1.1,7.3,3.1c2.5,2.6,6.7,2.7,9.3,0.2
	c0,0,0.1-0.1,0.1-0.1l0.1-0.1c3.9-4.1,10.3-4.2,14.4-0.3c0.1,0.1,0.2,0.2,0.3,0.3l0.1,0.1c2.6,2.6,6.7,2.6,9.3,0
	c0,0,0.1-0.1,0.1-0.1c1.9-2,4.6-3.2,7.3-3.1v3.5c-1.8,0-3.5,0.7-4.8,2C43.6,34.4,40.9,35.5,38.1,35.5z"/>
<path class="st0" d="M17.8,33.3c1.1-5.2,4.1-9.8,8.3-13c4.2,3.2,7.1,7.8,8.3,13H38c-1.3-6.8-5.2-12.7-10.9-16.6l-1-0.7l-1,0.7
	c-5.7,3.9-9.6,9.8-10.9,16.6L17.8,33.3L17.8,33.3z"/>
<path class="st0" d="M16.5,33.3c-1.2-8.5,2.5-16.9,9.6-21.7c7.1,4.8,10.9,13.2,9.6,21.7h3.6C40.6,23.2,35.8,13.3,27,8l-0.9-0.6
	L25.2,8c-8.7,5.3-13.6,15.2-12.3,25.3H16.5L16.5,33.3z"/>
<path class="st0" d="M67.9,7.5v14.7h0.1c0.3-0.4,0.6-0.8,1-1.1c0.4-0.4,0.9-0.7,1.5-1c1.4-0.8,3-1.2,4.5-1.1c2.8,0,5.4,1.1,7.3,3.2
	c0.9,1,1.6,2.2,2.1,3.5c0.5,1.4,0.8,2.8,0.7,4.3c0,1.5-0.2,2.9-0.7,4.3c-0.4,1.3-1.1,2.5-2,3.5c-0.9,1-2,1.8-3.2,2.4
	c-1.3,0.6-2.8,0.9-4.3,0.9c-1.4,0-2.9-0.3-4.2-1c-1.3-0.6-2.3-1.6-3-2.8h-0.1v3.1h-5v-33L67.9,7.5L67.9,7.5z M79.9,29.9
	c0-0.8-0.1-1.6-0.4-2.4c-0.2-0.8-0.6-1.5-1.1-2.2c-0.5-0.6-1.1-1.2-1.9-1.5c-0.8-0.4-1.7-0.6-2.7-0.6c-0.9,0-1.8,0.2-2.6,0.6
	c-0.7,0.4-1.4,0.9-1.9,1.6c-0.5,0.6-1,1.4-1.2,2.2c-0.3,0.8-0.4,1.6-0.4,2.4c0,0.8,0.1,1.6,0.4,2.4c0.3,0.8,0.7,1.5,1.2,2.2
	c0.5,0.6,1.2,1.2,1.9,1.5c1.7,0.8,3.6,0.8,5.2,0c0.7-0.4,1.4-0.9,1.9-1.6c0.5-0.7,0.9-1.4,1.1-2.2C79.8,31.6,79.9,30.8,79.9,29.9
	L79.9,29.9z"/>
<path class="st0" d="M87.1,29.9c0-1.5,0.3-3.1,0.9-4.5c0.6-1.3,1.4-2.5,2.4-3.5c1-1,2.3-1.7,3.6-2.2c2.9-1,6-1,8.9,0
	c1.3,0.5,2.6,1.2,3.6,2.2c1,1,1.9,2.2,2.4,3.5c0.6,1.4,0.9,3,0.9,4.5c0,1.6-0.3,3.1-0.9,4.5c-0.6,1.3-1.4,2.5-2.4,3.5
	c-1,1-2.3,1.8-3.6,2.3c-2.9,1.1-6,1.1-8.9,0c-1.3-0.5-2.6-1.3-3.6-2.3c-1-1-1.9-2.2-2.4-3.5C87.4,33,87.1,31.5,87.1,29.9z
	 M92.4,29.9c0,0.8,0.1,1.6,0.4,2.4c0.2,0.8,0.6,1.5,1.1,2.2c0.5,0.7,1.1,1.2,1.9,1.6c1.7,0.8,3.7,0.8,5.4,0c0.7-0.4,1.4-0.9,1.9-1.6
	c0.5-0.7,0.9-1.4,1.1-2.2c0.2-0.8,0.4-1.6,0.4-2.4c0-0.8-0.1-1.6-0.4-2.4c-0.2-0.8-0.6-1.5-1.1-2.2c-0.5-0.6-1.1-1.2-1.9-1.5
	c-1.7-0.8-3.7-0.8-5.4,0c-0.7,0.4-1.4,0.9-1.9,1.5c-0.5,0.6-0.9,1.4-1.1,2.2C92.5,28.3,92.4,29.1,92.4,29.9z"/>
<path class="st0" d="M125.7,37.8h-0.1c-0.6,1-1.5,1.8-2.5,2.3c-1.2,0.6-2.6,0.9-4,0.9c-0.9,0-1.8-0.1-2.6-0.3
	c-0.9-0.2-1.8-0.6-2.5-1.1c-0.8-0.5-1.4-1.2-1.9-2c-0.5-0.9-0.8-2-0.8-3.1c-0.1-1.4,0.4-2.7,1.3-3.8c1-1,2.1-1.7,3.4-2.1
	c1.5-0.5,3.1-0.9,4.6-1c1.7-0.2,3.4-0.2,5-0.2v-0.5c0.1-1.2-0.5-2.3-1.4-2.9c-1-0.6-2.2-1-3.4-0.9c-1.1,0-2.2,0.2-3.2,0.7
	c-0.9,0.4-1.8,1-2.5,1.7l-2.7-3.2c1.2-1.1,2.6-2,4.1-2.5c1.5-0.5,3.1-0.8,4.7-0.8c1.6-0.1,3.1,0.2,4.6,0.8c1.1,0.4,2.1,1.1,2.9,2
	c0.7,0.8,1.2,1.8,1.5,2.8c0.3,1,0.4,2.1,0.4,3.1v12.8h-4.8V37.8z M125.6,30.9h-1.2c-0.8,0-1.7,0-2.7,0.1c-0.9,0.1-1.7,0.2-2.6,0.5
	c-0.7,0.2-1.4,0.5-2,1c-0.5,0.5-0.8,1.1-0.8,1.9c0,0.4,0.1,0.9,0.3,1.2c0.2,0.3,0.5,0.6,0.9,0.8c0.4,0.2,0.8,0.4,1.2,0.4
	c0.4,0.1,0.9,0.1,1.3,0.1c1.5,0.1,3-0.4,4.1-1.4c1-1.1,1.5-2.5,1.4-3.9L125.6,30.9L125.6,30.9z"/>
<path class="st0" d="M132.3,23.8v-4.2h3.7v-6.1h5.1v6.1h5.2v4.2h-5.2v9.7c0,0.8,0.1,1.6,0.5,2.3c0.5,0.7,1.4,1.1,2.2,0.9
	c0.4,0,0.8,0,1.1-0.1c0.4-0.1,0.7-0.2,1.1-0.3l0.2,4.1c-0.5,0.2-1.1,0.3-1.7,0.4c-0.6,0.1-1.2,0.1-1.8,0.1c-1.2,0-2.3-0.2-3.4-0.6
	c-0.8-0.3-1.5-0.9-2.1-1.6c-0.5-0.7-0.8-1.5-1-2.4c-0.2-0.9-0.3-1.9-0.3-2.9v-9.8H132.3L132.3,23.8z"/>
<path class="st0" d="M162,25.1c-0.5-0.7-1.2-1.2-1.9-1.6c-0.8-0.5-1.7-0.7-2.7-0.7c-0.8,0-1.6,0.2-2.3,0.5c-0.7,0.3-1.1,1-1,1.7
	c0,0.8,0.4,1.5,1.2,1.7c1.1,0.4,2.2,0.8,3.4,1c0.8,0.2,1.6,0.4,2.4,0.7c0.8,0.3,1.5,0.7,2.2,1.1c0.7,0.5,1.2,1.1,1.6,1.8
	c0.4,0.8,0.6,1.7,0.6,2.6c0,1.1-0.2,2.2-0.7,3.3c-0.5,0.9-1.1,1.6-1.9,2.2c-0.8,0.6-1.8,1-2.8,1.2c-1.1,0.2-2.2,0.4-3.3,0.4
	c-1.6,0-3.2-0.3-4.8-0.9c-1.5-0.5-2.8-1.4-3.8-2.5l3.4-3.2c0.6,0.8,1.4,1.4,2.3,1.9c1,0.5,2,0.8,3.1,0.7c0.4,0,0.8,0,1.1-0.1
	c0.4-0.1,0.7-0.2,1.1-0.4c0.3-0.2,0.6-0.4,0.8-0.8c0.2-0.4,0.3-0.8,0.3-1.2c0-0.8-0.4-1.6-1.2-1.9c-1.2-0.5-2.4-0.9-3.6-1.1
	c-0.8-0.2-1.5-0.4-2.3-0.7c-0.7-0.3-1.4-0.6-2-1.1c-0.6-0.4-1.1-1-1.4-1.7c-0.4-0.8-0.5-1.6-0.5-2.5c0-1,0.2-2.1,0.7-3
	c0.5-0.8,1.1-1.5,1.9-2.1c0.8-0.6,1.7-1,2.7-1.2c1-0.3,2-0.4,3-0.4c1.5,0,3,0.3,4.4,0.8c1.3,0.5,2.5,1.3,3.4,2.4L162,25.1z"/>
<path class="st0" d="M188.4,30.3V31c0,0.2,0,0.5,0,0.7h-15.9c0,0.7,0.3,1.4,0.6,2.1c0.3,0.6,0.8,1.2,1.3,1.6
	c0.6,0.5,1.2,0.8,1.9,1.1c0.7,0.3,1.4,0.4,2.2,0.4c1.1,0,2.3-0.2,3.3-0.7c0.9-0.5,1.7-1.2,2.2-2l3.5,2.8c-2.1,2.8-5.1,4.2-9,4.2
	c-1.5,0-3.1-0.2-4.5-0.8c-1.3-0.5-2.5-1.2-3.5-2.2c-1-1-1.8-2.1-2.4-3.4c-0.6-1.5-0.9-3-0.9-4.6c0-1.6,0.3-3.1,0.9-4.6
	c1-2.7,3.2-4.8,5.8-5.8c1.4-0.5,2.9-0.8,4.4-0.8c1.4,0,2.7,0.2,4,0.7c1.2,0.5,2.3,1.2,3.2,2.1c0.9,1,1.7,2.2,2.1,3.5
	C188.1,26.9,188.4,28.6,188.4,30.3z M183.2,27.9c0-0.7-0.1-1.3-0.3-1.9c-0.4-1.2-1.3-2.2-2.4-2.7c-0.7-0.3-1.4-0.4-2.2-0.4
	c-1.5,0-2.9,0.5-4,1.4c-1.1,0.9-1.7,2.2-1.8,3.6H183.2L183.2,27.9z"/>
<path class="st0" d="M188.9,23.8v-4.2h3.7v-6.1h5.1v6.1h5.2v4.2h-5.2v9.7c0,0.8,0.1,1.6,0.5,2.3c0.5,0.7,1.4,1.1,2.2,0.9
	c0.4,0,0.8,0,1.1-0.1c0.4-0.1,0.7-0.2,1.1-0.3l0.2,4.1c-0.5,0.2-1.1,0.3-1.7,0.4c-0.6,0.1-1.2,0.1-1.8,0.1c-1.2,0-2.3-0.2-3.4-0.6
	c-0.8-0.3-1.5-0.9-2.1-1.6c-0.5-0.7-0.8-1.5-1-2.4c-0.2-0.9-0.3-1.9-0.3-2.9v-9.8H188.9L188.9,23.8z"/>
<path class="st0" d="M202.9,23.8v-4.2h3.7v-6.1h5.2v6.1h5.2v4.2h-5.2v9.7c0,0.8,0.1,1.6,0.5,2.3c0.5,0.7,1.4,1.1,2.2,0.9
	c0.4,0,0.8,0,1.1-0.1c0.4-0.1,0.7-0.2,1.1-0.3l0.2,4.1c-0.5,0.2-1.1,0.3-1.7,0.4c-0.6,0.1-1.2,0.1-1.8,0.1c-1.2,0-2.3-0.2-3.4-0.6
	c-0.8-0.3-1.5-0.9-2.1-1.6c-0.5-0.7-0.8-1.5-1-2.4c-0.2-0.9-0.3-1.9-0.3-2.9v-9.8H202.9L202.9,23.8z"/>
<path class="st0" d="M240.2,30.3V31c0,0.2,0,0.5,0,0.7h-16c0.1,1.4,0.8,2.8,1.9,3.7c0.6,0.5,1.2,0.8,1.9,1.1
	c0.7,0.3,1.4,0.4,2.2,0.4c1.1,0,2.3-0.2,3.3-0.7c0.9-0.5,1.7-1.2,2.2-2l3.5,2.8c-2.1,2.8-5.1,4.2-9,4.2c-1.5,0-3.1-0.2-4.5-0.8
	c-1.3-0.5-2.5-1.2-3.5-2.2c-1-1-1.8-2.1-2.4-3.4c-0.6-1.5-0.9-3-0.9-4.6c0-1.6,0.3-3.1,0.9-4.6c1-2.7,3.2-4.8,5.8-5.8
	c1.4-0.5,2.9-0.8,4.4-0.8c1.4,0,2.7,0.2,4,0.7c1.2,0.5,2.3,1.2,3.2,2.1c0.9,1,1.7,2.2,2.1,3.5C239.9,26.9,240.2,28.6,240.2,30.3z
	 M234.9,27.9c0-0.7-0.1-1.3-0.3-1.9c-0.4-1.2-1.3-2.2-2.4-2.7c-0.7-0.3-1.4-0.4-2.2-0.4c-1.5,0-2.9,0.5-4,1.4
	c-1.1,0.9-1.7,2.2-1.8,3.6H234.9L234.9,27.9z"/>
<path class="st0" d="M243.3,19.6h5V23h0.1c0.5-1.2,1.4-2.2,2.4-3c1.1-0.8,2.4-1.2,3.7-1.1h0.7c0.2,0,0.4,0,0.6,0.1v4.8
	c-0.3-0.1-0.6-0.1-0.9-0.2c-0.2,0-0.5,0-0.7,0c-1,0-2,0.2-2.9,0.6c-0.7,0.4-1.3,0.9-1.7,1.6c-0.4,0.6-0.6,1.2-0.8,1.9
	c-0.1,0.5-0.2,1-0.2,1.5v11.2h-5.2L243.3,19.6L243.3,19.6z"/>
</svg>
